<svg class="icon" height="200.00px" version="1.1" viewBox="0 0 1024 1024" width="200px"
    xmlns="http://www.w3.org/2000/svg">
    <path
        d="M512 172c187.68 0 340 152.32 340 340s-152.32 340-340 340-340-152.32-340-340 152.32-340 340-340z m0 67.548c-150.508 0-272.452 121.944-272.452 272.452 0 150.508 121.944 272.452 272.452 272.452 150.508 0 272.452-121.944 272.452-272.452 0-150.508-121.944-272.452-272.452-272.452z m191.308 92.48v150.504H589.52v51.228h113.788v153.68H536.48v-48.96h113.788v-55.76H536.48v-150.508h113.788V380.988H536.48v-48.96h166.828z m-215.788 0v48.96H373.732v51.224h113.788v150.508H373.732v55.76h113.788v48.96H320.692v-153.68h113.788v-51.228H320.692V332.028h166.828z" />
</svg>
