<svg class="icon" height="200" version="1.1" viewBox="0 0 1024 1024" width="200"
    xmlns="http://www.w3.org/2000/svg">
    <path
        d="M928.312889 480.8106663C792.078222 650.2400003 655.957333 732.4444443 519.651556 732.4444443c-136.832 0-278.584889-82.773333-425.031112-252.913778a49.777778 49.777778 0 1 0-75.463111 64.938667C182.826667 734.6204443 349.596444 832.0000003 519.637333 832.0000003c170.609778 0 332.785778-97.934222 486.257778-288.810667a49.777778 49.777778 0 0 0-77.582222-62.378667z" />
    <path
        d="M162.730667 682.7804443l-94.819556 109.710222a35.555556 35.555556 0 1 0 53.802667 46.506667l94.819555-109.710222a35.555556 35.555556 0 0 0-53.802666-46.506667zM354.247111 811.5200003l-37.930667 151.708444a35.555556 35.555556 0 0 0 68.992 17.251556l37.930667-151.708445a35.555556 35.555556 0 0 0-68.992-17.251555zM629.575111 817.7208893l53.333333 151.694222a35.555556 35.555556 0 0 0 67.072-23.580445l-53.333333-151.694222a35.555556 35.555556 0 0 0-67.072 23.580445zM823.111111 688.4977773l109.710222 109.724445a35.555556 35.555556 0 0 0 50.289778-50.289778l-109.710222-109.710222a35.555556 35.555556 0 0 0-50.289778 50.289778z" />
</svg>
