<svg height="200" version="1.1" viewBox="-400 -400 2144 1824" width="200"
    xmlns="http://www.w3.org/2000/svg">
    <path
        d="M430.08 0H288v617.92a477.44 477.44 0 0 1-15.04 147.52A115.2 115.2 0 0 1 224 835.52a243.2 243.2 0 0 1-96 45.44L0 896v128h11.84l183.04-24.32a416 416 0 0 0 135.68-67.2c66.56-58.56 101.44-147.52 101.44-265.92zM1344 512a609.6 609.6 0 0 0-38.4-224 416 416 0 0 0-107.52-160c-96-84.16-236.16-128-419.2-128h-209.92v1024h208.32c183.04 0 322.24-44.48 419.2-130.56a374.08 374.08 0 0 0 109.12-160A596.16 596.16 0 0 0 1344 512z m-239.68-291.52a261.12 261.12 0 0 1 73.6 119.36 500.48 500.48 0 0 1 27.84 172.16 470.08 470.08 0 0 1-27.84 168 249.28 249.28 0 0 1-73.6 120c-69.12 65.92-173.76 96-310.4 96H704V124.16h90.24c136.64 0 241.28 32 310.4 97.92z" />
</svg>
