<svg class="icon" height="200" viewBox="-30 -30 180 180" width="200"
    xmlns="http://www.w3.org/2000/svg">
    <path
        d="M60.174 55.016c-19.657.123-25.026 22.969-12.768 33-32.838-8.452-50.347-24.329-47-41 15.816-49.271 60-47 60-47l.127-.005c2.602-.087 44.551-.729 59.873 47.005 3.347 16.671-14.162 32.548-47 41 12.306-10.07 6.847-33.057-13-33h-.232zM60.206 123.017c-17.031.079-36.923-8.211-50.8-27.001 10.107-4.266 51-5 51-5l.118.002c2.404.047 41.091.865 50.882 4.998-13.931 18.864-33.925 27.145-51 27l-.2.001z" />
</svg>
