<svg class="icon" height="200" version="1.1" viewBox="-100 -100 1224 1224" width="200"
    xmlns="http://www.w3.org/2000/svg">
    <path
        d="M531.4 63.9c-160.9 0-291.3 130.4-291.3 291.3s130.4 291.3 291.3 291.3 291.3-130.4 291.3-291.3c0-160.8-130.5-291.3-291.3-291.3z m125.2 302.2L547.7 475c-6 6-15.8 6-21.8 0L417 366.1c-6-6-6-15.8 0-21.8l108.9-108.9c6-6 15.8-6 21.8 0l108.9 108.9c6 6.1 6 15.8 0 21.8z" />
    <path
        d="M242.3 615.7c9.3-1.9 18.9-0.8 27.5 3.3 51.7 24.9 210.7 135 261.6 135 59 0 286.8-143 315.6-143s64.7 2.7 64.7 36.1c0 28.2-270.5 233.9-351.3 300.5-14.6 12.1-34.5 15.2-52.2 8.4L239.3 809.3c-14.9-5.8-31.7-8.7-45.3-0.2l-36.5 8.3c-5 3.1-11.5-0.5-11.5-6.3V671.8c0-13 9.1-24.1 21.8-26.8l74.5-29.3z" />
</svg>
