<svg class="icon" height="200" version="1.1" viewBox="0 0 1024 1024" width="200"
    xmlns="http://www.w3.org/2000/svg">
    <path
        d="M431.2 322.56h-41.184c-7.488 22.176-10.016 31.072-10.016 31.072h-160.32s-2.4-8.896-10.016-31.072H168.576v31.072H119.456v37.152h156.928v30.688H127.168v39.968h149.216v28.256H127.168v39.968h149.216v28.864H119.456v39.36H261.76s-40.096 51.36-144 56.064v41.952s112.832 10.88 182.08-79.232c0 0 47.2 77.632 180.384 79.36v-43.584s-89.408 2.688-141.216-54.656h141.216v-39.36H324.48v-28.768h148.224v-39.968H324.48v-28.256h148.224v-40H324.48v-30.656h155.744v-37.152h-49.12l0.096-31.072z m191.52 303.04h47.904a502.816 502.816 0 0 0 50.88-160.672h41.696v100.992a400.864 400.864 0 0 1-6.72 59.968h44.224c3.328-19.84 5.024-39.872 5.12-59.968V464.96h28.736V425.92h-28.672V393.6h-42.56v32.576h-154.144v38.944h67.36a426.4 426.4 0 0 1-53.824 160.448z" />
    <path
        d="M542.72 332.8v368.64h310.944a52.736 52.736 0 0 0 52.576-52.8V332.8H542.72z m323.008 315.84a12.8 12.8 0 0 1-12.768 12.864h-270.112v-289.184h282.88v276.32z" />
</svg>
