<svg class="icon" height="200" version="1.1" viewBox="50 20 924 924" width="200"
    xmlns="http://www.w3.org/2000/svg">
    <path
        d="M869.02884197 379.61689186c-41.06193782-30.34383059-106.67413474-43.81388426-106.67413473-43.81388427-13.10795545-18.53942872-21.3637948-30.34383059-41.06193781-43.81388424-27.88156272-16.87377692-45.98647357-10.13875008-45.98647355 6.73502683-1.66492761 13.47005367 9.8490715 13.47005367 31.2128663 16.87377692 21.3637948 1.66565181 27.88156272 16.87377692 27.88156271 16.87377691-39.39628601-11.80440188-91.90052748-11.80440188-95.23110688 16.87377691-1.66565181 25.27445555 41.06193782 21.94315195 64.01896477 18.5394287 22.95702696-1.66565181 18.03249121 16.87377692 13.10795545 23.60952796-4.92453575 5.06937504-24.62267876 11.80440188-70.60915231 0-47.57970572-10.13875008-95.23183108-21.94315195-169.09986735-25.27445555-75.53296387-5.06937504-149.40100014 30.34383059-201.9059658 35.41320563s-111.59867048-18.53942872-111.59867048-18.53942872c-29.54721451-10.13875008-21.3637948 11.80440188-16.43925907 16.87377691 85.38275958 77.48901844 215.01464546 70.75399161 215.01464547 70.75399161-18.03249121 55.61828614 6.59018755 84.29646492 6.59018755 84.29646492 21.3637948-16.87377692 45.98647357-25.27445555 45.98647356-25.27445556-57.42877722 40.41016102-118.18885803 112.90222407-50.91100931 114.56787587 68.94350051 5.07009923 157.58514404 94.36279536 157.58514404 94.36279536s18.03249121 1.66565181 9.8490715-47.2176075c-6.59018755-48.88325931-75.53368808-53.95263433-75.53368807-53.95263434 13.10795545 0 64.01896477-11.80440188 98.49071503-21.94315194 34.47175027-11.80440188 70.60915232-40.41016102 75.53368807-43.81388427 4.92453575-5.06937504 9.8490715-11.80440188 0-21.94315194s-4.92453575-13.47005367 6.59018755-28.67817879c11.5147233-13.47005367 73.86803627-55.61828614 134.62811709-79.22708988 62.35331297-25.27445555 68.94350051-6.73502684 100.15636682-18.53942872 29.54721451-20.13266087-1.59395635-43.74146462-1.59395635-43.74146462z" />
</svg>
