<svg class="icon" height="200" version="1.1" viewBox="310 110 420 550" width="200"
    xmlns="http://www.w3.org/2000/svg">
    <path
        d="M418 493c-6.2-6.8-13-12.8-18-20.1-7.3-10.5-4.8-24.6 5.2-34.6 17.5-17.6 35.1-35.1 52.6-52.7 1.2-1.2 2.3-2.4 3.7-3.9-31-22.8-47.3-52.9-45.9-91.6 1-27.9 12.1-51.7 32.3-70.9 41.7-39.3 106.2-37.8 145.7 3.4 22.2 23.2 31.8 51.2 28.4 83.2-3.4 32.1-19.3 56.8-46.1 76.1 6.4 6.2 12.6 12 18.6 17.9 12.4 12.3 24.8 24.7 37.1 37.1 14 14.2 14 29.7 0 43.8-36.1 36.2-72.2 72.4-108.3 108.7-1.3 1.3-2.6 2.4-4.3 4-6-6.3-12.3-11.9-17.4-18.4-8.3-10.7-6.8-25 2.6-34.5 24.3-24.3 48.5-48.6 72.7-72.9 4.9-5 6.2-10.1 3.9-14.8-3.7-7.6-12.9-9.2-19.2-3-10.8 10.6-21.5 21.4-32.2 32.2-19.2 19.2-38.4 38.4-57.5 57.7-2.7 2.8-4.3 2.6-6.7-0.2-3.5-4-7.4-7.7-11.2-11.5-11.2-11.3-8.8-29.7 0.1-38.3 22.9-22.1 45.1-44.9 67.6-67.4l2.1-2.1c5.2-5.4 5.5-12.7 0.8-17.4-4.8-4.8-12-4.5-17.4 0.8-11 10.9-21.9 21.9-32.8 32.9-17.6 17.7-35.3 35.4-53 53-0.7 1.2-1.7 2-3.4 3.5z m101.4-158.4c1.6-1.1 3.1-1.8 4.2-2.9 10.6-10.6 21.1-21.2 31.8-31.7 3.2-3.1 3.2-5.7 0-8.8-10.6-10.4-21-20.9-31.4-31.5-3.1-3.2-5.6-3.3-8.8-0.1-10.5 10.7-21 21.3-31.7 31.8-3.1 3.1-3 5.3 0.1 8.3 10.7 10.5 21.1 21.2 31.7 31.8 1.1 1.1 2.6 1.9 4.1 3.1z" />
</svg>
