<svg class="icon" height="200" version="1.1" viewBox="-300 -300 1941 1624" width="200"
    xmlns="http://www.w3.org/2000/svg">
    <path
        d="M400.598966 691.844192l6.353671-41.828335 54.67687-423.578077H314.15374s-8.542158 57.18304-48.923268 412.600345C231.520717 901.232954 15.354705 888.17263 15.354705 888.17263L0 1024c209.812341-20.896518 265.795243-111.189245 314.15374-158.277008 62.371872 133.427094 253.087901 158.277008 253.087901 158.277008l11.471906-136.003861c-207.376767-15.707687-178.043985-196.610824-178.114581-196.151947zM256.900103 0a160.112513 160.112513 0 0 0-138.580627 122.908239c-62.124785 454.463978-82.703619 629.048742-82.703619 629.048741h141.192692l84.715615-617.29445 288.703757 0.670665-88.245432 616.623785h147.511065l99.223164-751.851085H257.253085z m637.732093 281.149948L723.612547 774.230128c-27.956153 87.610065-78.856119 81.185798-78.856118 81.185798s-2.541468 19.625784-22.873216 141.192692c188.209859 18.319752 240.34526-192.23385 240.34526-192.233851l185.66839-523.118924h-153.264667z m379.031782-190.292451L1283.229783 0H1115.422268l-13.378007 90.857497h-301.4111l-70.596346 135.368494h355.452602s79.491486 83.727266 35.015788 278.855567c-44.581593 232.967942-249.275698 504.940365-249.275698 504.940365h186.903826c97.281765 0 111.577525-112.954154 111.577525-112.954153l85.915754-673.806825h74.302654L1341.330576 90.892796h-67.666598z" />
</svg>
