<svg class="icon" height="200" version="1.1" viewBox="0 0 1024 1024" width="200"
    xmlns="http://www.w3.org/2000/svg">
    <path
        d="M634.12086749 510.74125607c0-12.58743927 3.77623177-23.91545568 12.58743928-31.46791924 8.81052856-8.81052856 20.13922388-13.84550426 31.4672403-12.58676033 12.58743927 0 23.91545568 5.0349757 31.46791924 12.58743927 8.81052856 8.81052856 12.58743927 18.88047998 12.58743926 31.4672403s-3.77691071 23.91545568-12.58743926 32.72666317c-8.8112075 8.81052856-20.13922388 13.84550426-31.46791924 13.84550426-12.58743927 0-23.91545568-5.0349757-31.4672403-13.84550426-8.8112075-8.8112075-13.84618319-20.13990282-12.58743928-32.72666317z" />
    <path
        d="M690.76298634 630.31785552c-64.19390347 0-117.05979053-52.86520812-117.05979053-118.31785552s52.86588706-118.31785552 117.05979053-118.31785552h151.04451868v-65.45332633c0-18.88047998-6.29371963-33.98472816-18.88115889-47.83091136s-27.69100853-20.13922388-46.5714885-20.13922389H253.99174346c-17.62173605 0-32.72598423 7.55246356-45.31274457 20.13990283s-20.13990282 28.94975245-20.13990282 47.83091135v367.54100584c0 8.8112075 1.25874393 17.62241498 5.0349757 26.43294352 3.77623177 7.55246356 8.8112075 15.10492713 15.10492712 21.39796783s13.84550426 11.32869534 21.39796783 13.84618319c8.81052856 3.77623177 16.36231318 5.0349757 26.4322646 5.03497572h522.36311417c8.81052856 0 17.62173605-1.25874393 25.17352067-5.03497572 15.10492713-6.29371963 27.69168746-20.13922388 32.72666316-35.24347208 3.77623177-7.55246356 5.0349757-16.36367106 5.03497571-26.43294352V630.31785552H690.76298634z" />
</svg>
